<?xml version="1.0" encoding="UTF-8" standalone="no"?><svg xmlns="http://www.w3.org/2000/svg" xmlns:xlink="http://www.w3.org/1999/xlink" contentScriptType="application/ecmascript" contentStyleType="text/css" height="1002px" preserveAspectRatio="none" style="width:1105px;height:1002px;" version="1.1" viewBox="0 0 1105 1002" width="1105px" zoomAndPan="magnify"><defs/><g><text fill="#000000" font-family="Helvetica" font-size="18" lengthAdjust="spacingAndGlyphs" textLength="197" x="457.5" y="19.2419">phyx3d — components</text><!--MD5=[43979faede6ceed8e67bb71518ba370f]
cluster Front-ends--><path d="M363,180.0158 L437,180.0158 A6,6 0 0 1 441,184.0158 L448,205.0838 L822,205.0838 A4,4 0 0 1 826,209.0838 L826,443.0158 A4,4 0 0 1 822,447.0158 L363,447.0158 A4,4 0 0 1 359,443.0158 L359,184.0158 A4,4 0 0 1 363,180.0158 " fill="#FAFBFF" style="stroke: #3B4250; stroke-width: 1.5;"/><line style="stroke: #3B4250; stroke-width: 1.5;" x1="359" x2="448" y1="205.0838" y2="205.0838"/><text fill="#000000" font-family="Helvetica" font-size="14" font-weight="bold" lengthAdjust="spacingAndGlyphs" textLength="76" x="363" y="196.9818">Front-ends</text><!--MD5=[31d0cfee901f187b6de051e553be6f8c]
cluster Engine — src/core (TypeScript + WebAssembly)--><path d="M26,498.0158 L350,498.0158 A6,6 0 0 1 354,502.0158 L361,523.0838 L922,523.0838 A4,4 0 0 1 926,527.0838 L926,986.5158 A4,4 0 0 1 922,990.5158 L26,990.5158 A4,4 0 0 1 22,986.5158 L22,502.0158 A4,4 0 0 1 26,498.0158 " fill="#FAFBFF" style="stroke: #3B4250; stroke-width: 1.5;"/><line style="stroke: #3B4250; stroke-width: 1.5;" x1="22" x2="361" y1="523.0838" y2="523.0838"/><text fill="#000000" font-family="Helvetica" font-size="14" font-weight="bold" lengthAdjust="spacingAndGlyphs" textLength="326" x="26" y="514.9818">Engine — src/core (TypeScript + WebAssembly)</text><!--MD5=[08af8945a84acfe1eabc0963aa87c412]
entity web--><rect fill="#EEF0FF" height="58.1358" rx="4" ry="4" style="stroke: #5B6CF0; stroke-width: 1.5;" width="120" x="375" y="218.0158"/><rect fill="#EEF0FF" height="5" style="stroke: #5B6CF0; stroke-width: 1.5;" width="10" x="370" y="223.0158"/><rect fill="#EEF0FF" height="5" style="stroke: #5B6CF0; stroke-width: 1.5;" width="10" x="370" y="266.1517"/><text fill="#000000" font-family="Helvetica" font-size="14" lengthAdjust="spacingAndGlyphs" textLength="60" x="385" y="242.9818">Web app</text><text fill="#000000" font-family="Helvetica" font-size="14" lengthAdjust="spacingAndGlyphs" textLength="100" x="385" y="262.0497">(Vite + three.js)</text><!--MD5=[d37e7b6e4e01e9dcb388f1477493d265]
entity worker--><rect fill="#EEF0FF" height="39.0679" rx="4" ry="4" style="stroke: #5B6CF0; stroke-width: 1.5;" width="102" x="396" y="382.5158"/><rect fill="#EEF0FF" height="5" style="stroke: #5B6CF0; stroke-width: 1.5;" width="10" x="391" y="387.5158"/><rect fill="#EEF0FF" height="5" style="stroke: #5B6CF0; stroke-width: 1.5;" width="10" x="391" y="411.5838"/><text fill="#000000" font-family="Helvetica" font-size="14" lengthAdjust="spacingAndGlyphs" textLength="82" x="406" y="407.4818">Web Worker</text><!--MD5=[c251b62818238b6f79269adc5bf7d1e2]
entity cli--><rect fill="#EEF0FF" height="58.1358" rx="4" ry="4" style="stroke: #5B6CF0; stroke-width: 1.5;" width="115" x="530.5" y="218.0158"/><rect fill="#EEF0FF" height="5" style="stroke: #5B6CF0; stroke-width: 1.5;" width="10" x="525.5" y="223.0158"/><rect fill="#EEF0FF" height="5" style="stroke: #5B6CF0; stroke-width: 1.5;" width="10" x="525.5" y="266.1517"/><text fill="#000000" font-family="Helvetica" font-size="14" lengthAdjust="spacingAndGlyphs" textLength="21" x="540.5" y="242.9818">CLI</text><text fill="#000000" font-family="Helvetica" font-size="14" lengthAdjust="spacingAndGlyphs" textLength="95" x="540.5" y="262.0497">src/node/cli.ts</text><!--MD5=[375a92a8c9de268eff3fefd3dd2291ef]
entity mcp--><rect fill="#EEF0FF" height="58.1358" rx="4" ry="4" style="stroke: #5B6CF0; stroke-width: 1.5;" width="129" x="680.5" y="218.0158"/><rect fill="#EEF0FF" height="5" style="stroke: #5B6CF0; stroke-width: 1.5;" width="10" x="675.5" y="223.0158"/><rect fill="#EEF0FF" height="5" style="stroke: #5B6CF0; stroke-width: 1.5;" width="10" x="675.5" y="266.1517"/><text fill="#000000" font-family="Helvetica" font-size="14" lengthAdjust="spacingAndGlyphs" textLength="76" x="690.5" y="242.9818">MCP server</text><text fill="#000000" font-family="Helvetica" font-size="14" lengthAdjust="spacingAndGlyphs" textLength="109" x="690.5" y="262.0497">src/node/mcp.ts</text><!--MD5=[dd82451e1dd92fe3da01853750f49ff6]
entity server--><rect fill="#EEF0FF" height="58.1358" rx="4" ry="4" style="stroke: #5B6CF0; stroke-width: 1.5;" width="142" x="538" y="373.0158"/><rect fill="#EEF0FF" height="5" style="stroke: #5B6CF0; stroke-width: 1.5;" width="10" x="533" y="378.0158"/><rect fill="#EEF0FF" height="5" style="stroke: #5B6CF0; stroke-width: 1.5;" width="10" x="533" y="421.1517"/><text fill="#000000" font-family="Helvetica" font-size="14" lengthAdjust="spacingAndGlyphs" textLength="80" x="548" y="397.9818">HTTP server</text><text fill="#000000" font-family="Helvetica" font-size="14" lengthAdjust="spacingAndGlyphs" textLength="122" x="548" y="417.0497">src/node/server.ts</text><!--MD5=[b0352ac3cb2babe975aa0d0183cfa0ce]
entity loaders--><rect fill="#EEF0FF" height="58.1358" rx="4" ry="4" style="stroke: #5B6CF0; stroke-width: 1.5;" width="142" x="38" y="728.5158"/><rect fill="#EEF0FF" height="5" style="stroke: #5B6CF0; stroke-width: 1.5;" width="10" x="33" y="733.5158"/><rect fill="#EEF0FF" height="5" style="stroke: #5B6CF0; stroke-width: 1.5;" width="10" x="33" y="776.6517"/><text fill="#000000" font-family="Helvetica" font-size="14" lengthAdjust="spacingAndGlyphs" textLength="50" x="48" y="753.4818">loaders</text><text fill="#000000" font-family="Helvetica" font-size="14" lengthAdjust="spacingAndGlyphs" textLength="122" x="48" y="772.5497">STL · 3MF · G-code</text><!--MD5=[76ae50b4b294662975fdae70cd5b13b2]
entity geom--><rect fill="#EEF0FF" height="39.0679" rx="4" ry="4" style="stroke: #5B6CF0; stroke-width: 1.5;" width="170" x="123" y="935.5158"/><rect fill="#EEF0FF" height="5" style="stroke: #5B6CF0; stroke-width: 1.5;" width="10" x="118" y="940.5158"/><rect fill="#EEF0FF" height="5" style="stroke: #5B6CF0; stroke-width: 1.5;" width="10" x="118" y="964.5838"/><text fill="#000000" font-family="Helvetica" font-size="14" lengthAdjust="spacingAndGlyphs" textLength="150" x="133" y="960.4818">mesh · voxel · geom2d</text><!--MD5=[e132700e034a4f2f51ed9e2a9fef93f1]
entity checks--><rect fill="#EEF0FF" height="58.1358" rx="4" ry="4" style="stroke: #5B6CF0; stroke-width: 1.5;" width="119" x="185.5" y="728.5158"/><rect fill="#EEF0FF" height="5" style="stroke: #5B6CF0; stroke-width: 1.5;" width="10" x="180.5" y="733.5158"/><rect fill="#EEF0FF" height="5" style="stroke: #5B6CF0; stroke-width: 1.5;" width="10" x="180.5" y="776.6517"/><text fill="#000000" font-family="Helvetica" font-size="14" lengthAdjust="spacingAndGlyphs" textLength="74" x="195.5" y="753.4818">printability</text><text fill="#000000" font-family="Helvetica" font-size="14" lengthAdjust="spacingAndGlyphs" textLength="99" x="195.5" y="772.5497">stability · warp</text><!--MD5=[afb833f0fe80fe9c162c9fc54249732e]
entity fea--><rect fill="#EEF0FF" height="58.1358" rx="4" ry="4" style="stroke: #5B6CF0; stroke-width: 1.5;" width="173" x="244.5" y="816.5158"/><rect fill="#EEF0FF" height="5" style="stroke: #5B6CF0; stroke-width: 1.5;" width="10" x="239.5" y="821.5158"/><rect fill="#EEF0FF" height="5" style="stroke: #5B6CF0; stroke-width: 1.5;" width="10" x="239.5" y="864.6517"/><text fill="#000000" font-family="Helvetica" font-size="14" lengthAdjust="spacingAndGlyphs" textLength="21" x="254.5" y="841.4818">fea</text><text fill="#000000" font-family="Helvetica" font-size="14" lengthAdjust="spacingAndGlyphs" textLength="153" x="254.5" y="860.5497">(voxel hexahedra, PCG)</text><!--MD5=[cca5e2aa3dd623c6364590e8452e44f2]
entity physics--><rect fill="#EEF0FF" height="58.1358" rx="4" ry="4" style="stroke: #5B6CF0; stroke-width: 1.5;" width="182" x="149" y="640.5158"/><rect fill="#EEF0FF" height="5" style="stroke: #5B6CF0; stroke-width: 1.5;" width="10" x="144" y="645.5158"/><rect fill="#EEF0FF" height="5" style="stroke: #5B6CF0; stroke-width: 1.5;" width="10" x="144" y="688.6517"/><text fill="#000000" font-family="Helvetica" font-size="14" lengthAdjust="spacingAndGlyphs" textLength="50" x="159" y="665.4818">physics</text><text fill="#000000" font-family="Helvetica" font-size="14" lengthAdjust="spacingAndGlyphs" textLength="162" x="159" y="684.5497">(drop · tilt · push · stack)</text><!--MD5=[800cb049332b7501b95bb86dde322046]
entity mech--><rect fill="#EEF0FF" height="58.1358" rx="4" ry="4" style="stroke: #5B6CF0; stroke-width: 1.5;" width="166" x="366" y="640.5158"/><rect fill="#EEF0FF" height="5" style="stroke: #5B6CF0; stroke-width: 1.5;" width="10" x="361" y="645.5158"/><rect fill="#EEF0FF" height="5" style="stroke: #5B6CF0; stroke-width: 1.5;" width="10" x="361" y="688.6517"/><text fill="#000000" font-family="Helvetica" font-size="14" lengthAdjust="spacingAndGlyphs" textLength="78" x="376" y="665.4818">mechanism</text><text fill="#000000" font-family="Helvetica" font-size="14" lengthAdjust="spacingAndGlyphs" textLength="146" x="376" y="684.5497">(joints · motors · expr)</text><!--MD5=[adc942805a84da7507e57889230172c9]
entity gcode--><rect fill="#EEF0FF" height="39.0679" rx="4" ry="4" style="stroke: #5B6CF0; stroke-width: 1.5;" width="152" x="567" y="650.0158"/><rect fill="#EEF0FF" height="5" style="stroke: #5B6CF0; stroke-width: 1.5;" width="10" x="562" y="655.0158"/><rect fill="#EEF0FF" height="5" style="stroke: #5B6CF0; stroke-width: 1.5;" width="10" x="562" y="679.0838"/><text fill="#000000" font-family="Helvetica" font-size="14" lengthAdjust="spacingAndGlyphs" textLength="132" x="577" y="674.9818">gcode · gcodecheck</text><!--MD5=[1e7fcfc34f4a1f9e80a48bf5978a5873]
entity analyze--><rect fill="#EEF0FF" height="39.0679" rx="4" ry="4" style="stroke: #5B6CF0; stroke-width: 1.5;" width="125" x="250.5" y="536.0158"/><rect fill="#EEF0FF" height="5" style="stroke: #5B6CF0; stroke-width: 1.5;" width="10" x="245.5" y="541.0158"/><rect fill="#EEF0FF" height="5" style="stroke: #5B6CF0; stroke-width: 1.5;" width="10" x="245.5" y="565.0838"/><text fill="#000000" font-family="Helvetica" font-size="14" lengthAdjust="spacingAndGlyphs" textLength="105" x="260.5" y="560.9818">analyze · report</text><!--MD5=[7b81b3f54888d80991adc2e216cc97b2]
entity render--><rect fill="#EEF0FF" height="58.1358" rx="4" ry="4" style="stroke: #5B6CF0; stroke-width: 1.5;" width="155" x="754.5" y="640.5158"/><rect fill="#EEF0FF" height="5" style="stroke: #5B6CF0; stroke-width: 1.5;" width="10" x="749.5" y="645.5158"/><rect fill="#EEF0FF" height="5" style="stroke: #5B6CF0; stroke-width: 1.5;" width="10" x="749.5" y="688.6517"/><text fill="#000000" font-family="Helvetica" font-size="14" lengthAdjust="spacingAndGlyphs" textLength="85" x="764.5" y="665.4818">render · png</text><text fill="#000000" font-family="Helvetica" font-size="14" lengthAdjust="spacingAndGlyphs" textLength="135" x="764.5" y="684.5497">(software rasteriser)</text><!--MD5=[8fc3522a43f8c7199df5e09e5bb0188e]
entity user--><ellipse cx="512" cy="52.0158" fill="#FFFFFF" rx="8" ry="8" style="stroke: #3B4250; stroke-width: 1.5;"/><path d="M512,60.0158 L512,87.0158 M499,68.0158 L525,68.0158 M512,87.0158 L499,102.0158 M512,87.0158 L525,102.0158 " fill="none" style="stroke: #3B4250; stroke-width: 1.5;"/><text fill="#000000" font-family="Helvetica" font-size="14" lengthAdjust="spacingAndGlyphs" textLength="25" x="499.5" y="119.4818">You</text><!--MD5=[3908db504f15eb564d5f0e12bd7273c1]
entity agent--><ellipse cx="745" cy="42.5158" fill="#FFFFFF" rx="8" ry="8" style="stroke: #3B4250; stroke-width: 1.5;"/><path d="M745,50.5158 L745,77.5158 M732,58.5158 L758,58.5158 M745,77.5158 L732,92.5158 M745,77.5158 L758,92.5158 " fill="none" style="stroke: #3B4250; stroke-width: 1.5;"/><text fill="#000000" font-family="Helvetica" font-size="14" lengthAdjust="spacingAndGlyphs" textLength="57" x="662.5" y="109.9818">AI agent</text><text fill="#000000" font-family="Helvetica" font-size="14" lengthAdjust="spacingAndGlyphs" textLength="165" x="662.5" y="129.0497">(Claude Code, Cursor, …)</text><!--MD5=[7219ad87dac3332f1d73f24820c1b2c6]
entity runs--><path d="M942,541.5158 C942,531.5158 1007,531.5158 1007,531.5158 C1007,531.5158 1072,531.5158 1072,541.5158 L1072,569.5838 C1072,579.5838 1007,579.5838 1007,579.5838 C1007,579.5838 942,579.5838 942,569.5838 L942,541.5158 " fill="#FFF6E5" style="stroke: #3B4250; stroke-width: 1.5;"/><path d="M942,541.5158 C942,551.5158 1007,551.5158 1007,551.5158 C1007,551.5158 1072,551.5158 1072,541.5158 " fill="none" style="stroke: #3B4250; stroke-width: 1.5;"/><text fill="#000000" font-family="Helvetica" font-size="14" lengthAdjust="spacingAndGlyphs" textLength="110" x="952" y="570.4818">~~/.phyx3d/runs</text><!--MD5=[cb1cf34a8d1d2cae64c85a697e98011e]
entity rapier--><rect fill="#EEF0FF" height="58.1358" rx="4" ry="4" style="stroke: #5B6CF0; stroke-width: 1.5;" width="152" x="942" y="816.5158"/><rect fill="#EEF0FF" height="5" style="stroke: #5B6CF0; stroke-width: 1.5;" width="10" x="937" y="821.5158"/><rect fill="#EEF0FF" height="5" style="stroke: #5B6CF0; stroke-width: 1.5;" width="10" x="937" y="864.6517"/><text fill="#000000" font-family="Helvetica" font-size="14" lengthAdjust="spacingAndGlyphs" textLength="44" x="952" y="841.4818">Rapier</text><text fill="#000000" font-family="Helvetica" font-size="14" lengthAdjust="spacingAndGlyphs" textLength="132" x="952" y="860.5497">(rigid-body physics)</text><!--MD5=[35a556a340821977b8bffd4e43301094]
entity bambu--><rect fill="#EEF0FF" height="58.1358" rx="4" ry="4" style="stroke: #5B6CF0; stroke-width: 1.5;" width="140" x="842" y="373.0158"/><rect fill="#EEF0FF" height="5" style="stroke: #5B6CF0; stroke-width: 1.5;" width="10" x="837" y="378.0158"/><rect fill="#EEF0FF" height="5" style="stroke: #5B6CF0; stroke-width: 1.5;" width="10" x="837" y="421.1517"/><text fill="#000000" font-family="Helvetica" font-size="14" lengthAdjust="spacingAndGlyphs" textLength="120" x="852" y="397.9818">Bambu Studio CLI</text><text fill="#000000" font-family="Helvetica" font-size="14" lengthAdjust="spacingAndGlyphs" textLength="63" x="852" y="417.0497">(optional)</text><!--MD5=[b40267574027cc07176494ec281baea8]
link user to web--><path d="M497.34,114.8658 C483.97,142.9858 464.29,184.3958 450.63,213.1258 " fill="none" id="user-&gt;web" style="stroke: #3B4250; stroke-width: 1.0;"/><polygon fill="#3B4250" points="448.32,217.9858,455.793,211.5706,450.4641,213.4689,448.5659,208.1401,448.32,217.9858" style="stroke: #3B4250; stroke-width: 1.0;"/><!--MD5=[9812f602e090fdcb32c2cfe7c38b215a]
link agent to mcp--><path d="M745,133.0558 C745,158.8658 745,189.8158 745,212.7858 " fill="none" id="agent-&gt;mcp" style="stroke: #3B4250; stroke-width: 1.0;"/><polygon fill="#3B4250" points="745,217.8558,749,208.8558,745,212.8558,741,208.8558,745,217.8558" style="stroke: #3B4250; stroke-width: 1.0;"/><!--MD5=[4410cb965f17e92b9d7639144d0303d4]
link user to cli--><path d="M526.65,115.2558 C539.82,143.3258 559.1,184.4158 572.52,213.0258 " fill="none" id="user-&gt;cli" style="stroke: #3B4250; stroke-width: 1.0;"/><polygon fill="#3B4250" points="574.79,217.8558,574.5816,208.0092,572.6631,213.3308,567.3415,211.4123,574.79,217.8558" style="stroke: #3B4250; stroke-width: 1.0;"/><!--MD5=[567b6b46dedb9327f3d959b8fd3bca99]
link web to worker--><path d="M437.2,276.0758 C439.47,305.0358 442.98,349.7158 445.12,377.0558 " fill="none" id="web-&gt;worker" style="stroke: #3B4250; stroke-width: 1.0;"/><polygon fill="#3B4250" points="445.53,382.2858,448.8218,373.0034,445.1432,377.3008,440.8458,373.6222,445.53,382.2858" style="stroke: #3B4250; stroke-width: 1.0;"/><!--MD5=[06644762b21ac0f428804e557e423aa7]
link worker to analyze--><path d="M430.57,421.5958 C405.96,449.4158 359.57,501.8558 333.02,531.8858 " fill="none" id="worker-&gt;analyze" style="stroke: #3B4250; stroke-width: 1.0;"/><polygon fill="#3B4250" points="329.57,535.7858,338.5312,531.6996,332.8847,532.0425,332.5418,526.396,329.57,535.7858" style="stroke: #3B4250; stroke-width: 1.0;"/><!--MD5=[edabc1b815a9bd66c5db02b0357e494c]
link cli to analyze--><path d="M530.24,270.9158 C524.46,272.8058 518.65,274.5458 513,276.0158 C470.36,287.1158 345.97,272.8158 317,306.0158 C261.18,369.9758 288.8,482.3958 304.57,531.0158 " fill="none" id="cli-&gt;analyze" style="stroke: #3B4250; stroke-width: 1.0;"/><polygon fill="#3B4250" points="306.15,535.7958,307.1164,525.9945,304.5774,531.0496,299.5224,528.5106,306.15,535.7958" style="stroke: #3B4250; stroke-width: 1.0;"/><!--MD5=[d8a81b86ab5b66fcd26172f595484828]
link mcp to analyze--><path d="M680.38,271.1158 C674.54,272.8858 668.68,274.5558 663,276.0158 C533.83,309.2558 464.32,270.4958 379,373.0158 C339.54,420.4258 322.71,493.4158 316.36,530.7458 " fill="none" id="mcp-&gt;analyze" style="stroke: #3B4250; stroke-width: 1.0;"/><polygon fill="#3B4250" points="315.5,535.9858,320.9136,527.7583,316.315,531.0527,313.0206,526.4542,315.5,535.9858" style="stroke: #3B4250; stroke-width: 1.0;"/><!--MD5=[d3d93c07747cd0cdbc408cd2ca4d12d5]
link analyze to checks--><path d="M250.45,563.9058 C195.62,571.8358 121.93,586.4758 104,609.5158 C79.71,640.7358 81.61,665.9058 104,698.5158 C124.12,727.8158 145.74,715.4958 180.57,728.0558 " fill="none" id="analyze-&gt;checks" style="stroke: #3B4250; stroke-width: 1.0;"/><polygon fill="#3B4250" points="185.34,729.9058,178.3873,722.9302,180.6762,728.1033,175.5032,730.3923,185.34,729.9058" style="stroke: #3B4250; stroke-width: 1.0;"/><!--MD5=[46babcb00117413eca747c418a310e9b]
link analyze to fea--><path d="M250.49,567.4658 C208.86,578.3558 157.16,599.6258 131,640.5158 C117.11,662.2258 114.38,678.8058 131,698.5158 C181.87,758.8458 250.17,672.7458 306,728.5158 C324.51,747.0058 310.5,760.9458 316,786.5158 C317.74,794.5958 319.84,803.2558 321.92,811.3458 " fill="none" id="analyze-&gt;fea" style="stroke: #3B4250; stroke-width: 1.0;"/><polygon fill="#3B4250" points="323.21,816.3058,324.8203,806.5895,321.9537,811.4662,317.077,808.5996,323.21,816.3058" style="stroke: #3B4250; stroke-width: 1.0;"/><!--MD5=[cef412abddc66fdf823ba237d48fb1b8]
link analyze to render--><path d="M375.54,567.0658 C458.6,581.4958 609.66,609.2058 737,640.5158 C741.08,641.5158 745.25,642.5858 749.45,643.6958 " fill="none" id="analyze-&gt;render" style="stroke: #3B4250; stroke-width: 1.0;"/><polygon fill="#3B4250" points="754.39,645.0158,746.7223,638.8348,749.5584,643.7293,744.6638,646.5654,754.39,645.0158" style="stroke: #3B4250; stroke-width: 1.0;"/><!--MD5=[90c34969587b113b4d1db56535b501eb]
link checks to geom--><path d="M235.27,786.5858 C232.28,796.0058 229.2,806.6358 227,816.5158 C218.26,855.7658 212.84,902.2758 210.13,929.8958 " fill="none" id="checks-&gt;geom" style="stroke: #3B4250; stroke-width: 1.0;"/><polygon fill="#3B4250" points="209.62,935.1658,214.4762,926.5974,210.1062,930.1895,206.5141,925.8195,209.62,935.1658" style="stroke: #3B4250; stroke-width: 1.0;"/><!--MD5=[9fcde77ad612c2c55f5fb08c11db5c92]
link fea to geom--><path d="M298.68,874.7558 C278.3,892.5758 252.35,915.2558 233.44,931.7858 " fill="none" id="fea-&gt;geom" style="stroke: #3B4250; stroke-width: 1.0;"/><polygon fill="#3B4250" points="229.28,935.4258,238.688,932.5121,233.0438,932.1343,233.4216,926.4901,229.28,935.4258" style="stroke: #3B4250; stroke-width: 1.0;"/><!--MD5=[06d0295b331c271ad84a23d995c34fda]
link physics to rapier--><path d="M331.24,694.1658 C337.25,695.6558 343.21,697.1158 349,698.5158 C521.3,740.1258 563.94,752.9758 738,786.5158 C821.08,802.5258 843.55,797.4858 926,816.5158 C929.58,817.3458 933.22,818.2358 936.89,819.1758 " fill="none" id="physics-&gt;rapier" style="stroke: #3B4250; stroke-width: 1.0;"/><polygon fill="#3B4250" points="941.91,820.4758,934.2038,814.3428,937.0704,819.2195,932.1937,822.0862,941.91,820.4758" style="stroke: #3B4250; stroke-width: 1.0;"/><!--MD5=[d7cef826adcdccfe3468968a97f9e97a]
link mech to rapier--><path d="M532.04,694.3558 C538.1,695.8458 544.13,697.2458 550,698.5158 C634.42,716.7458 658.91,704.9458 742,728.5158 C818.97,750.3558 903.16,787.8658 958.06,814.3058 " fill="none" id="mech-&gt;rapier" style="stroke: #3B4250; stroke-width: 1.0;"/><polygon fill="#3B4250" points="962.62,816.5158,956.2527,809.002,958.1169,814.3429,952.776,816.2071,962.62,816.5158" style="stroke: #3B4250; stroke-width: 1.0;"/><!--MD5=[a5d7c634e6c17be6e3f41402cc3f4be9]
link physics to fea--><path d="M286.08,698.5758 C296.44,706.9658 306.33,717.0458 313,728.5158 C327.63,753.6858 331.54,786.8758 332.14,811.3058 " fill="none" id="physics-&gt;fea" style="stroke: #3B4250; stroke-width: 1.0;"/><polygon fill="#3B4250" points="332.21,816.3858,336.081,807.3296,332.1386,811.3864,328.0818,807.4439,332.21,816.3858" style="stroke: #3B4250; stroke-width: 1.0;"/><text fill="#000000" font-family="Helvetica" font-size="13" lengthAdjust="spacingAndGlyphs" textLength="79" x="331" y="762.9129">impact stress</text><!--MD5=[55de312fa0c4eccd43bb6f03439917d7]
link loaders to geom--><path d="M123.18,786.5258 C142.83,825.3258 177.97,894.7158 196.24,930.7958 " fill="none" id="loaders-&gt;geom" style="stroke: #3B4250; stroke-width: 1.0;"/><polygon fill="#3B4250" points="198.6,935.4458,198.1025,925.6096,196.3411,930.9852,190.9654,929.2238,198.6,935.4458" style="stroke: #3B4250; stroke-width: 1.0;"/><!--MD5=[7131f6521b03f7120f92cf86f97037e5]
link analyze to loaders--><path d="M250.18,558.5558 C203.43,563.0058 140.31,575.5258 96,609.5158 C64.05,634.0258 69.48,659.3858 79,698.5158 C81.06,706.9958 84.6,715.6258 88.54,723.5458 " fill="none" id="analyze-&gt;loaders" style="stroke: #3B4250; stroke-width: 1.0; stroke-dasharray: 7.0,7.0;"/><polygon fill="#3B4250" points="91.03,728.3758,90.4696,718.5429,88.7426,723.9297,83.3558,722.2028,91.03,728.3758" style="stroke: #3B4250; stroke-width: 1.0;"/><!--MD5=[4b07d3a2694c6b0d05bd2c5aa5fc66b4]
link analyze to physics--><path d="M300.78,575.2658 C289.99,591.8158 274.01,616.3258 261.15,636.0658 " fill="none" id="analyze-&gt;physics" style="stroke: #3B4250; stroke-width: 1.0; stroke-dasharray: 7.0,7.0;"/><polygon fill="#3B4250" points="258.29,640.4558,266.5557,635.1007,261.0205,636.2672,259.8539,630.732,258.29,640.4558" style="stroke: #3B4250; stroke-width: 1.0;"/><!--MD5=[233eb201a9ceaa387c1614029eb9612e]
link analyze to mech--><path d="M335.76,575.2658 C356.21,592.0958 386.63,617.1558 410.8,637.0558 " fill="none" id="analyze-&gt;mech" style="stroke: #3B4250; stroke-width: 1.0; stroke-dasharray: 7.0,7.0;"/><polygon fill="#3B4250" points="414.93,640.4558,410.5186,631.6502,411.0679,637.2803,405.4377,637.8296,414.93,640.4558" style="stroke: #3B4250; stroke-width: 1.0;"/><!--MD5=[6655e085f994ee234edb8d4aa1c80bff]
link analyze to gcode--><path d="M367.86,575.1358 C427.31,595.3158 521.87,627.4058 583.19,648.2158 " fill="none" id="analyze-&gt;gcode" style="stroke: #3B4250; stroke-width: 1.0; stroke-dasharray: 7.0,7.0;"/><polygon fill="#3B4250" points="588.28,649.9458,581.0488,643.2593,583.5467,648.3348,578.4711,650.8326,588.28,649.9458" style="stroke: #3B4250; stroke-width: 1.0;"/><!--MD5=[a81f2421e0601605a744925a1fbef280]
link mcp to runs--><path d="M809.77,250.7858 C857.87,255.9358 922.55,269.7558 967,306.0158 C1032.27,359.2658 1021.92,473.2358 1012.83,526.2758 " fill="none" id="mcp-&gt;runs" style="stroke: #3B4250; stroke-width: 1.0;"/><polygon fill="#3B4250" points="1011.95,531.2158,1017.4559,523.0498,1012.8206,526.2922,1009.5781,521.6569,1011.95,531.2158" style="stroke: #3B4250; stroke-width: 1.0;"/><text fill="#000000" font-family="Helvetica" font-size="13" lengthAdjust="spacingAndGlyphs" textLength="51" x="1020" y="407.4129">save run</text><!--MD5=[aafd618bf57436004ff9051eaa2701ae]
link cli to runs--><path d="M612.79,276.1158 C662.41,332.3558 769.46,453.5158 772,455.0158 C832.42,490.7258 862.74,459.6158 926,490.0158 C945.7,499.4858 964.95,514.5058 979.75,527.6658 " fill="none" id="cli-&gt;runs" style="stroke: #3B4250; stroke-width: 1.0;"/><polygon fill="#3B4250" points="983.8,531.3258,979.8053,522.3235,980.0906,527.9731,974.441,528.2585,983.8,531.3258" style="stroke: #3B4250; stroke-width: 1.0;"/><text fill="#000000" font-family="Helvetica" font-size="13" lengthAdjust="spacingAndGlyphs" textLength="51" x="773" y="407.4129">save run</text><!--MD5=[063c09c3faf483f16a81c819b4739774]
link server to runs--><path d="M620.9,431.2958 C630.09,449.2658 644.7,471.1258 665,482.0158 C690.57,495.7358 898.76,480.0258 926,490.0158 C947.47,497.8958 967.61,513.8658 982.43,527.9458 " fill="none" id="server-&gt;runs" style="stroke: #3B4250; stroke-width: 1.0;"/><polygon fill="#3B4250" points="986.08,531.4858,982.3779,522.3592,982.4808,528.0152,976.8249,528.118,986.08,531.4858" style="stroke: #3B4250; stroke-width: 1.0;"/><text fill="#000000" font-family="Helvetica" font-size="13" lengthAdjust="spacingAndGlyphs" textLength="60" x="666" y="477.9129">list / serve</text><!--MD5=[d1367f5aa194df22b5aad01985fe56c7]
link web to server--><path d="M466.91,276.0758 C496.87,302.4158 541.62,341.7658 572.87,369.2458 " fill="none" id="web-&gt;server" style="stroke: #3B4250; stroke-width: 1.0;"/><polygon fill="#3B4250" points="576.99,372.8758,572.8676,363.9312,573.2333,369.5763,567.5883,369.9419,576.99,372.8758" style="stroke: #3B4250; stroke-width: 1.0;"/><text fill="#000000" font-family="Helvetica" font-size="13" lengthAdjust="spacingAndGlyphs" textLength="55" x="549.5" y="320.9129">/api/runs</text><text fill="#000000" font-family="Helvetica" font-size="13" lengthAdjust="spacingAndGlyphs" textLength="68" x="543" y="338.6189">/api/events</text><!--MD5=[100dcdc29976457870e920b5295269b2]
link cli to bambu--><path d="M645.52,270.1858 C651.4,272.2358 657.3,274.2158 663,276.0158 C713.79,292.0158 731.96,281.0658 779,306.0158 C800.98,317.6758 801.12,328.0658 821,343.0158 C833.38,352.3258 847.25,361.6658 860.36,370.0558 " fill="none" id="cli-&gt;bambu" style="stroke: #3B4250; stroke-width: 1.0; stroke-dasharray: 7.0,7.0;"/><polygon fill="#3B4250" points="864.77,372.8558,859.3174,364.6541,860.5493,370.1752,855.0283,371.4071,864.77,372.8558" style="stroke: #3B4250; stroke-width: 1.0;"/><text fill="#000000" font-family="Helvetica" font-size="13" lengthAdjust="spacingAndGlyphs" textLength="25" x="822" y="329.9129">slice</text><!--MD5=[55ab1b81f1dcf998690729733d7ba8a7]
link mcp to bambu--><path d="M809.77,274.1958 C826.06,282.7358 842.68,293.3558 856,306.0158 C874.37,323.4758 888.72,348.2858 898.29,368.1658 " fill="none" id="mcp-&gt;bambu" style="stroke: #3B4250; stroke-width: 1.0; stroke-dasharray: 7.0,7.0;"/><polygon fill="#3B4250" points="900.5,372.8458,900.2916,362.9992,898.3731,368.3208,893.0515,366.4023,900.5,372.8458" style="stroke: #3B4250; stroke-width: 1.0;"/><text fill="#000000" font-family="Helvetica" font-size="13" lengthAdjust="spacingAndGlyphs" textLength="74" x="884" y="329.9129">slice_bambu</text><!--MD5=[fd2352dd2b61228cad2767ae9b325a46]
@startuml architecture
skinparam backgroundColor #FFFFFF
skinparam ArrowColor #3B4250
skinparam BorderColor #3B4250
skinparam RoundCorner 8
skinparam ComponentBackgroundColor #EEF0FF
skinparam ClassBackgroundColor #EEF0FF
skinparam ActivityBackgroundColor #EEF0FF
skinparam ParticipantBackgroundColor #EEF0FF
skinparam PackageBackgroundColor #FAFBFF
skinparam DatabaseBackgroundColor #FFF6E5
skinparam ActorBackgroundColor #FFFFFF
skinparam ActorBorderColor #3B4250
skinparam ComponentBorderColor #5B6CF0
skinparam ClassBorderColor #5B6CF0
skinparam ActivityBorderColor #5B6CF0
skinparam ActivityDiamondBorderColor #3B4250
skinparam ActivityDiamondBackgroundColor #FFF6E5
skinparam ParticipantBorderColor #5B6CF0
skinparam PackageBorderColor #3B4250
skinparam DatabaseBorderColor #3B4250
skinparam SequenceLifeLineBorderColor #8B93A7
skinparam componentStyle rectangle
skinparam defaultFontName Helvetica
skinparam shadowing false
title phyx3d — components

actor "You" as user
actor "AI agent\n(Claude Code, Cursor, …)" as agent

package "Front-ends" {
  [Web app\n(Vite + three.js)] as web
  [Web Worker] as worker
  [CLI\nsrc/node/cli.ts] as cli
  [MCP server\nsrc/node/mcp.ts] as mcp
  [HTTP server\nsrc/node/server.ts] as server
}

package "Engine — src/core (TypeScript + WebAssembly)" {
  [loaders\nSTL · 3MF · G-code] as loaders
  [mesh · voxel · geom2d] as geom
  [printability\nstability · warp] as checks
  [fea\n(voxel hexahedra, PCG)] as fea
  [physics\n(drop · tilt · push · stack)] as physics
  [mechanism\n(joints · motors · expr)] as mech
  [gcode · gcodecheck] as gcode
  [analyze · report] as analyze
  [render · png\n(software rasteriser)] as render
}

database "~~/.phyx3d/runs" as runs
[Rapier\n(rigid-body physics)] as rapier
[Bambu Studio CLI\n(optional)] as bambu

user - -> web
agent - -> mcp
user - -> cli
web - -> worker
worker - -> analyze
cli - -> analyze
mcp - -> analyze
analyze - -> checks
analyze - -> fea
analyze - -> render
checks - -> geom
fea - -> geom
physics - -> rapier
mech - -> rapier
physics - -> fea : impact stress
loaders - -> geom
analyze ..> loaders
analyze ..> physics
analyze ..> mech
analyze ..> gcode
mcp - -> runs : save run
cli - -> runs : save run
server - -> runs : list / serve
web - -> server : /api/runs\n/api/events
cli ..> bambu : slice
mcp ..> bambu : slice_bambu
@enduml

PlantUML version 1.2020.02(Sun Mar 01 10:22:07 UTC 2020)
(GPL source distribution)
Java Runtime: OpenJDK Runtime Environment
JVM: OpenJDK 64-Bit Server VM
Java Version: 21.0.12.1+1-1-24.04.4-Ubuntu
Operating System: Linux
Default Encoding: UTF-8
Language: en
Country: null
--></g></svg>